<svg width="24" height="24" viewBox="0 0 24 24" fill="none" xmlns="http://www.w3.org/2000/svg">
<circle cx="12" cy="12" r="12" fill="#FF805D"/>
<g clip-path="url(#clip0_1122_5423)">
<path d="M14.375 5.875C14.6904 5.8749 14.9941 5.994 15.2253 6.20844C15.4566 6.42287 15.5982 6.71678 15.6219 7.03125L15.625 7.125C15.625 7.27808 15.6812 7.42584 15.7829 7.54023C15.8847 7.65463 16.0248 7.72771 16.1769 7.74563L16.25 7.75H16.875C17.3533 7.74997 17.8134 7.9327 18.1614 8.2608C18.5094 8.5889 18.7188 9.03757 18.7469 9.515L18.75 9.625V15.25C18.75 15.7283 18.5673 16.1884 18.2392 16.5364C17.9111 16.8844 17.4624 17.0938 16.985 17.1219L16.875 17.125H8.125C7.64674 17.125 7.18655 16.9423 6.83859 16.6142C6.49062 16.2861 6.28118 15.8374 6.25313 15.36L6.25 15.25V9.625C6.24997 9.14674 6.4327 8.68655 6.7608 8.33859C7.0889 7.99062 7.53757 7.78118 8.015 7.75313L8.125 7.75H8.75C8.91576 7.75 9.07473 7.68415 9.19194 7.56694C9.30915 7.44973 9.375 7.29076 9.375 7.125C9.3749 6.80964 9.494 6.5059 9.70844 6.27466C9.92287 6.04342 10.2168 5.90178 10.5312 5.87813L10.625 5.875H14.375ZM12.5 10.25C12.0354 10.25 11.5873 10.4224 11.2426 10.734C10.8979 11.0455 10.6811 11.474 10.6344 11.9362L10.6275 12.0312L10.625 12.125L10.6275 12.2188C10.6458 12.5851 10.7713 12.9381 10.9882 13.2339C11.2052 13.5297 11.5042 13.7554 11.8481 13.883C12.1921 14.0106 12.5659 14.0344 12.9233 13.9516C13.2807 13.8688 13.6059 13.683 13.8588 13.4172C14.1116 13.1514 14.2809 12.8172 14.3457 12.4561C14.4105 12.0951 14.3679 11.7229 14.2233 11.3858C14.0786 11.0486 13.8383 10.7613 13.532 10.5594C13.2257 10.3576 12.8669 10.25 12.5 10.25Z" fill="white"/>
</g>
<defs>
<clipPath id="clip0_1122_5423">
<rect width="15" height="15" fill="white" transform="translate(5 4)"/>
</clipPath>
</defs>
</svg>
