<svg width="23" height="22" viewBox="0 0 23 22" fill="none" xmlns="http://www.w3.org/2000/svg">
<path fill-rule="evenodd" clip-rule="evenodd" d="M2.29988 0.064528C1.53831 0.233769 0.843909 0.798406 0.527665 1.50552C0.302771 2.00831 0.297486 2.09911 0.310892 5.21576L0.323352 8.09904L0.439151 8.41609C0.718787 9.18158 1.31737 9.76799 2.07095 10.0148L2.38581 10.1179H5.37209H8.35836L8.67323 10.0148C9.44188 9.76305 10.0659 9.13927 10.3177 8.37086L10.4208 8.05609V5.07075V2.08541L10.3177 1.77064C10.0708 1.0173 9.48421 0.418903 8.71847 0.139355L8.40133 0.0235924L5.47951 0.015431C3.17741 0.00898783 2.50299 0.0193828 2.29988 0.064528ZM14.1805 0.0691241C13.2314 0.273631 12.4265 1.08612 12.2256 2.04245C12.1326 2.48566 12.1326 7.65584 12.2256 8.09904C12.4287 9.06586 13.2349 9.87177 14.202 10.0748C14.6453 10.1678 19.8171 10.1678 20.2605 10.0748C21.2276 9.87177 22.0338 9.06586 22.2368 8.09904C22.3299 7.65584 22.3299 2.48566 22.2368 2.04245C22.0338 1.07563 21.2276 0.269722 20.2605 0.0667187C19.8298 -0.0236576 14.6016 -0.0215958 14.1805 0.0691241ZM2.51472 1.80148C2.30671 1.89744 2.17579 2.03343 2.0871 2.24571C2.02944 2.3836 2.02072 2.76113 2.02153 5.08011C2.02243 7.58926 2.02742 7.76606 2.1018 7.92722C2.19779 8.13516 2.33382 8.26605 2.54617 8.3547C2.6841 8.41235 3.06174 8.42107 5.38145 8.42025C7.89138 8.41935 8.06824 8.41437 8.22946 8.34001C8.43746 8.24405 8.56839 8.10806 8.65707 7.89578C8.75723 7.65622 8.75723 2.48527 8.65707 2.24571C8.56839 2.03343 8.43746 1.89744 8.22946 1.80148C8.06815 1.72708 7.89224 1.72219 5.37209 1.72219C2.85193 1.72219 2.67602 1.72708 2.51472 1.80148ZM14.4474 1.76815C14.2498 1.82601 13.9799 2.10929 13.9237 2.31788C13.8921 2.43527 13.8811 3.34677 13.8892 5.16907L13.9012 7.84767L14.0165 8.02176C14.0799 8.11751 14.2056 8.24173 14.2958 8.29779L14.4598 8.39972H17.2344H20.0089L20.1831 8.28447C20.2789 8.22112 20.4032 8.09547 20.4593 8.00527L20.5613 7.84131V5.07075V2.30018L20.4593 2.13622C20.4032 2.04602 20.279 1.92038 20.1832 1.85702L20.009 1.74177L17.2989 1.7343C15.6641 1.72975 14.5326 1.74319 14.4474 1.76815ZM2.29988 11.92C1.53831 12.0892 0.843909 12.6539 0.527665 13.361C0.302771 13.8638 0.297486 13.9546 0.310892 17.0712L0.323352 19.9545L0.439151 20.2715C0.718787 21.037 1.31737 21.6234 2.07095 21.8703L2.38581 21.9733H5.37209H8.35836L8.67323 21.8703C9.44188 21.6185 10.0659 20.9947 10.3177 20.2263L10.4208 19.9115V16.9262V13.9409L10.3177 13.6261C10.0708 12.8727 9.48421 12.2743 8.71847 11.9948L8.40133 11.879L5.47951 11.8709C3.17741 11.8644 2.50299 11.8748 2.29988 11.92ZM14.1805 11.9246C13.2314 12.1291 12.4265 12.9416 12.2256 13.8979C12.1326 14.3411 12.1326 19.5113 12.2256 19.9545C12.4287 20.9213 13.2349 21.7272 14.202 21.9302C14.6453 22.0233 19.8171 22.0233 20.2605 21.9302C21.2276 21.7272 22.0338 20.9213 22.2368 19.9545C22.3299 19.5113 22.3299 14.3411 22.2368 13.8979C22.0338 12.9311 21.2276 12.1252 20.2605 11.9222C19.8298 11.8318 14.6016 11.8338 14.1805 11.9246ZM2.51472 13.6569C2.30671 13.7529 2.17579 13.8889 2.0871 14.1012C2.02944 14.239 2.02072 14.6166 2.02153 16.9356C2.02243 19.4447 2.02742 19.6215 2.1018 19.7827C2.19779 19.9906 2.33382 20.1215 2.54617 20.2101C2.6841 20.2678 3.06174 20.2765 5.38145 20.2757C7.89138 20.2748 8.06824 20.2698 8.22946 20.1955C8.43746 20.0995 8.56839 19.9635 8.65707 19.7512C8.75723 19.5117 8.75723 14.3407 8.65707 14.1012C8.56839 13.8889 8.43746 13.7529 8.22946 13.6569C8.06815 13.5825 7.89224 13.5776 5.37209 13.5776C2.85193 13.5776 2.67602 13.5825 2.51472 13.6569ZM14.4474 13.6236C14.2498 13.6815 13.9799 13.9647 13.9237 14.1733C13.8921 14.2907 13.8811 15.2022 13.8892 17.0245L13.9012 19.7031L14.0165 19.8772C14.0799 19.973 14.2056 20.0972 14.2958 20.1532L14.4598 20.2552H17.2344H20.0089L20.1831 20.1399C20.2789 20.0766 20.4032 19.9509 20.4593 19.8607L20.5613 19.6968V16.9262V14.1556L20.4593 13.9917C20.4032 13.9015 20.279 13.7758 20.1832 13.7125L20.009 13.5972L17.2989 13.5897C15.6641 13.5852 14.5326 13.5986 14.4474 13.6236Z" fill="url(#paint0_linear_2189_18262)"/>
<defs>
<linearGradient id="paint0_linear_2189_18262" x1="22.3066" y1="3.44578" x2="5.54528" y2="19.7245" gradientUnits="userSpaceOnUse">
<stop stop-color="#EA7838"/>
<stop offset="1" stop-color="#E5B01F"/>
</linearGradient>
</defs>
</svg>
