<svg width="25" height="26" viewBox="0 0 25 26" fill="none" xmlns="http://www.w3.org/2000/svg">
<g id="Group">
<path id="Vector" d="M15.4009 0.754944C14.9159 0.754944 14.4713 1.16108 14.4713 1.68905V9.81176C14.4713 10.2991 14.8755 10.7459 15.4009 10.7459H24.0501C24.2926 10.7459 24.5351 10.624 24.6967 10.4616C24.8584 10.2585 24.9392 10.0148 24.9392 9.77114C24.6159 4.69446 20.4126 0.754944 15.4009 0.754944ZM16.2901 8.83703V2.62317C19.6446 3.0293 22.3526 5.54734 22.9992 8.87765H16.2901V8.83703Z" fill="#111928"/>
<path id="Vector_2" d="M21.908 12.5735H12.8951V3.84156C12.8951 3.35419 12.4909 2.94806 12.0059 2.94806C11.8847 2.94806 11.7634 2.94806 11.6422 2.94806C5.49884 2.90745 0.527588 7.94352 0.527588 14.1168C0.527588 20.29 5.53926 25.3261 11.6826 25.3261C17.8259 25.3261 22.8376 20.29 22.8376 14.1168C22.8376 13.8731 22.8376 13.6294 22.7972 13.4263C22.7972 12.939 22.393 12.5735 21.908 12.5735ZM11.6826 23.4985C6.50925 23.4985 2.34634 19.3153 2.34634 14.1168C2.34634 9.16193 6.22634 5.05996 11.1168 4.77567V13.467C11.1168 13.9543 11.5209 14.4011 12.0463 14.4011H21.0593C20.8976 19.4371 16.7347 23.4985 11.6826 23.4985Z" fill="#111928"/>
</g>
</svg>
