<svg width="31" height="31" viewBox="0 0 31 31" fill="none" xmlns="http://www.w3.org/2000/svg">
<path d="M23.0573 15.123H16.5507V7.73622C16.5507 7.13729 16.054 6.63818 15.4579 6.63818C14.8619 6.63818 14.3652 7.13729 14.3652 7.73622V16.271C14.3652 16.8699 14.8619 17.369 15.4579 17.369H23.0573C23.6533 17.369 24.15 16.8699 24.15 16.271C24.15 15.672 23.703 15.123 23.0573 15.123Z" fill="#111928"/>
<path d="M15.8027 0C7.50803 0 0.802734 6.83778 0.802734 15.2727C0.802734 23.7076 7.50803 30.5454 15.8027 30.5454C24.0974 30.5454 30.8027 23.7076 30.8027 15.2727C30.8027 6.83778 24.0974 0 15.8027 0ZM15.8027 28.2994C8.74975 28.2994 2.98816 22.4598 2.98816 15.2727C2.98816 8.08555 8.74975 2.24598 15.8027 2.24598C22.8557 2.24598 28.6173 8.08555 28.6173 15.2727C28.6173 22.4598 22.8557 28.2994 15.8027 28.2994Z" fill="#111928"/>
</svg>
