<svg width="57" height="58" viewBox="0 0 57 58" fill="none" xmlns="http://www.w3.org/2000/svg">
<path d="M41.8934 28.8713H29.6437V14.9646C29.6437 13.837 28.7086 12.8973 27.5865 12.8973C26.4644 12.8973 25.5293 13.837 25.5293 14.9646V31.0325C25.5293 32.16 26.4644 33.0997 27.5865 33.0997H41.8934C43.0155 33.0997 43.9506 32.16 43.9506 31.0325C43.9506 29.9049 43.109 28.8713 41.8934 28.8713Z" fill="#111928"/>
<path d="M28.2397 0.400024C12.6237 0.400024 0 13.2731 0 29.1531C0 45.0331 12.6237 57.9062 28.2397 57.9062C43.8557 57.9062 56.4794 45.0331 56.4794 29.1531C56.4794 13.2731 43.8557 0.400024 28.2397 0.400024ZM28.2397 53.6778C14.9614 53.6778 4.11439 42.684 4.11439 29.1531C4.11439 15.6222 14.9614 4.62842 28.2397 4.62842C41.518 4.62842 52.365 15.6222 52.365 29.1531C52.365 42.684 41.518 53.6778 28.2397 53.6778Z" fill="#111928"/>
</svg>
