<svg width="26" height="26" viewBox="0 0 26 26" fill="none" xmlns="http://www.w3.org/2000/svg">
<g clip-path="url(#clip0_748_1216)">
<path d="M2.15597 11.2103L2.68854 10.864V20.9549C2.68854 22.4312 3.86453 23.6136 5.33479 23.6136H20.5315C22.0017 23.6136 23.1777 22.4312 23.1777 20.9549V10.864L23.7103 11.2103L23.7099 11.2108L23.7199 11.2158L23.7307 11.2213C23.8842 11.2984 24.0642 11.3889 24.2498 11.3889C24.5644 11.3889 24.9198 11.2112 25.101 10.9381L25.1022 10.9363C25.414 10.444 25.2806 9.81362 24.7889 9.49905C24.7888 9.49899 24.7888 9.49894 24.7887 9.49889L14.3616 2.75732L14.3616 2.7573L14.3601 2.75638C13.4799 2.20885 12.3468 2.20738 11.5045 2.75743C11.5044 2.75747 11.5044 2.75752 11.5043 2.75757L1.07717 9.49916L1.07713 9.4991L1.07393 9.50135C0.628137 9.81492 0.492624 10.4411 0.762686 10.8934L0.762474 10.8935L0.766491 10.8993C1.07849 11.3472 1.70229 11.4839 2.15309 11.2121L2.15312 11.2121L2.15597 11.2103ZM12.5832 4.46861L12.5832 4.46862L12.5846 4.46769C12.7934 4.32779 13.0728 4.32779 13.2816 4.46769L13.2816 4.4677L13.283 4.46861L21.159 9.55636V20.9549C21.159 21.3063 20.8799 21.586 20.5315 21.586H5.33479C4.98631 21.586 4.70729 21.3063 4.70729 20.9549V9.55636L12.5832 4.46861Z" fill="black" stroke="black" stroke-width="0.2"/>
</g>
<defs>
<clipPath id="clip0_748_1216">
<rect width="25.8667" height="25.9926" fill="white"/>
</clipPath>
</defs>
</svg>
