<svg width="24" height="24" viewBox="0 0 24 24" fill="none" xmlns="http://www.w3.org/2000/svg">
<path d="M13.6946 18.6239C13.6946 17.5562 12.8285 16.6906 11.7601 16.6906C10.6917 16.6906 9.82553 17.5562 9.82553 18.6239C9.82553 19.6917 10.6917 20.5573 11.7601 20.5573C12.8285 20.5573 13.6946 19.6917 13.6946 18.6239Z" fill="#111928"/>
<path d="M13.6946 11.8572C13.6946 10.7894 12.8285 9.92386 11.7601 9.92386C10.6917 9.92386 9.82553 10.7894 9.82553 11.8572C9.82553 12.9249 10.6917 13.7905 11.7601 13.7905C12.8285 13.7905 13.6946 12.9249 13.6946 11.8572Z" fill="#111928"/>
<path d="M13.6946 5.09059C13.6946 4.02284 12.8285 3.15726 11.7601 3.15726C10.6917 3.15726 9.82553 4.02284 9.82553 5.09059C9.82553 6.15834 10.6917 7.02393 11.7601 7.02393C12.8285 7.02393 13.6946 6.15834 13.6946 5.09059Z" fill="#111928"/>
</svg>
