<svg width="27" height="25" viewBox="0 0 27 25" fill="none" xmlns="http://www.w3.org/2000/svg">
<path d="M21.2353 14.7241V10.6018C21.2353 6.61242 18.2798 3.37661 14.4421 2.84469V0.98299C14.4421 0.451075 14.001 0.0078125 13.4717 0.0078125C12.9423 0.0078125 12.5012 0.451075 12.5012 0.98299V2.84469C8.66351 3.33228 5.70804 6.61242 5.70804 10.6018V14.7241C5.70804 14.9458 5.57571 16.5858 5.00226 18.0043C4.64937 18.8908 4.73759 19.866 5.26693 20.6195C5.79627 21.4174 6.63438 21.8606 7.60484 21.8606H9.76629C10.1192 23.6337 11.6631 25.0078 13.5158 25.0078C15.3684 25.0078 16.9565 23.678 17.2652 21.8606H19.4267C20.353 21.8606 21.2353 21.4174 21.7646 20.6195C22.2939 19.8216 22.3822 18.8465 22.0293 18.0043C21.4117 16.5858 21.2794 14.9014 21.2353 14.7241ZM13.4717 23.0131C12.7218 23.0131 12.0601 22.5255 11.7954 21.8606H15.192C14.8832 22.5255 14.2215 23.0131 13.4717 23.0131ZM20.0443 19.5114C19.9119 19.733 19.6472 19.866 19.3826 19.866H7.56072C7.29606 19.866 7.03139 19.733 6.89905 19.5114C6.76672 19.2897 6.72261 18.9794 6.81083 18.7578C7.56072 16.9404 7.69306 14.9014 7.69306 14.8128V14.7684V10.6461C7.69306 7.45462 10.2956 4.83937 13.4717 4.83937C16.6477 4.83937 19.2502 7.45462 19.2502 10.6461V14.7241V14.7684C19.2502 14.8571 19.3826 16.8961 20.1325 18.7135C20.2207 19.0238 20.2207 19.2897 20.0443 19.5114Z" fill="#111928"/>
<path d="M5.09055 1.64738C4.69354 1.29277 4.07598 1.29277 3.67898 1.69171C1.38519 4.17398 0.105957 7.40979 0.105957 10.8229C0.105957 11.3548 0.547071 11.7981 1.07641 11.7981C1.60574 11.7981 2.04686 11.3548 2.04686 10.8229C2.04686 7.94171 3.10553 5.19348 5.09055 3.06582C5.53166 2.66688 5.48755 2.04632 5.09055 1.64738Z" fill="#111928"/>
<path d="M23.2645 1.73635C22.9116 1.33741 22.25 1.29309 21.853 1.69202C21.4559 2.04663 21.4118 2.71153 21.8088 3.11046C23.7497 5.23812 24.8525 7.98635 24.8525 10.8676C24.8525 11.3995 25.2936 11.8427 25.823 11.8427C26.3523 11.8427 26.7934 11.3995 26.7934 10.8676C26.7934 7.45443 25.5583 4.21862 23.2645 1.73635Z" fill="#111928"/>
</svg>
