<svg width="27" height="27" viewBox="0 0 27 27" fill="none" xmlns="http://www.w3.org/2000/svg">
<g id="signature">
<path id="Vector" d="M25.5246 7.96123C24.7163 7.14896 23.9079 6.29608 23.0592 5.48381C22.8167 5.24013 22.5338 5.11829 22.2104 5.11829C21.8871 5.11829 21.5638 5.24013 21.3617 5.48381L12.1871 14.6218C12.0254 14.7843 11.8638 15.028 11.7829 15.2717L10.4492 19.333C10.2471 19.333 10.0046 19.3736 9.84295 19.5361C9.80253 19.5361 9.76211 19.5361 9.68128 19.4955C9.56003 19.4549 9.43878 19.333 9.27711 19.2518C9.11545 19.1299 8.91336 19.0081 8.71128 18.8863C7.98378 18.5207 7.17545 18.5207 6.60961 18.9675C6.52878 19.0487 6.44795 19.0893 6.36711 19.1706L6.3267 19.2112C6.28628 19.2112 6.24586 19.2112 6.24586 19.2112C6.20545 19.1299 6.12461 18.9269 6.0842 18.7644C6.04378 18.602 6.00336 18.4801 5.96295 18.3177C5.68003 17.4242 4.99295 16.6525 4.10378 16.3276C3.49753 16.0839 2.9317 16.0839 2.4467 16.3276C1.92128 16.6119 1.63836 17.0993 1.51711 17.343C1.35545 17.6272 1.19378 17.9522 1.07253 18.2771C0.870447 18.7238 1.11295 19.2924 1.55753 19.4549C2.00211 19.6173 2.56795 19.4142 2.72961 18.9675C2.85086 18.7238 2.97211 18.4395 3.09336 18.1958C3.1742 18.074 3.21461 17.9928 3.21461 17.9928C3.25503 17.9928 3.29545 17.9928 3.37628 18.0334C3.74003 18.1958 4.06336 18.5207 4.18461 18.9269C4.22503 19.0081 4.22503 19.1299 4.26545 19.2112C4.34628 19.5767 4.46753 19.9828 4.75045 20.389C5.07378 20.7545 5.51836 21.0388 6.04378 21.0794C6.5692 21.12 7.0542 20.9576 7.45836 20.6326C7.49878 20.592 7.5392 20.5514 7.62003 20.5108C7.66045 20.5108 7.74128 20.5514 7.82211 20.592C7.94336 20.6326 8.06461 20.7545 8.18586 20.8357C8.38795 20.9576 8.59003 21.12 8.83253 21.2418C9.15586 21.4043 9.4792 21.4855 9.80253 21.4855C10.2471 21.4855 10.6513 21.3231 10.9746 21.0794C11.0554 20.9982 11.1363 20.9169 11.1767 20.7951C11.2171 20.7951 11.2979 20.7951 11.3384 20.7951H11.5L15.7438 19.3736C15.9863 19.2924 16.1884 19.1706 16.3904 18.9675L25.5246 9.78884C25.7671 9.54516 25.8884 9.26086 25.8884 8.93596C25.8479 8.48921 25.7267 8.1643 25.5246 7.96123ZM15.0971 17.5054L12.6721 18.3177L13.4804 15.8809L19.9067 9.46393L21.5234 11.0885L15.0971 17.5054ZM22.8167 9.78884L21.2 8.1643L22.2104 7.14896C22.7359 7.67694 23.2613 8.20491 23.7867 8.7735L22.8167 9.78884Z" fill="#111928"/>
</g>
</svg>
