<svg width="38" height="8" viewBox="0 0 38 8" fill="none" xmlns="http://www.w3.org/2000/svg">
<path d="M8.52886 4C8.52886 5.06087 8.09573 6.07828 7.32475 6.82843C6.55376 7.57857 5.50809 8 4.41775 8C3.32742 8 2.28174 7.57857 1.51076 6.82843C0.739774 6.07828 0.306641 5.06087 0.306641 4C0.306641 2.93913 0.739774 1.92172 1.51076 1.17157C2.28174 0.421428 3.32742 0 4.41775 0C5.50809 0 6.55376 0.421428 7.32475 1.17157C8.09573 1.92172 8.52886 2.93913 8.52886 4ZM22.9178 4C22.9178 5.06087 22.4846 6.07828 21.7136 6.82843C20.9427 7.57857 19.897 8 18.8066 8C17.7163 8 16.6706 7.57857 15.8996 6.82843C15.1287 6.07828 14.6955 5.06087 14.6955 4C14.6955 2.93913 15.1287 1.92172 15.8996 1.17157C16.6706 0.421428 17.7163 0 18.8066 0C19.897 0 20.9427 0.421428 21.7136 1.17157C22.4846 1.92172 22.9178 2.93913 22.9178 4ZM37.3066 4C37.3066 5.06087 36.8735 6.07828 36.1025 6.82843C35.3315 7.57857 34.2859 8 33.1955 8C32.1052 8 31.0595 7.57857 30.2885 6.82843C29.5176 6.07828 29.0844 5.06087 29.0844 4C29.0844 2.93913 29.5176 1.92172 30.2885 1.17157C31.0595 0.421428 32.1052 0 33.1955 0C34.2859 0 35.3315 0.421428 36.1025 1.17157C36.8735 1.92172 37.3066 2.93913 37.3066 4Z" fill="url(#paint0_linear_2189_18280)"/>
<defs>
<linearGradient id="paint0_linear_2189_18280" x1="37.3066" y1="1.25301" x2="34.7199" y2="12.8724" gradientUnits="userSpaceOnUse">
<stop stop-color="#EA7838"/>
<stop offset="1" stop-color="#E5B01F"/>
</linearGradient>
</defs>
</svg>
