<svg width="27" height="27" viewBox="0 0 27 27" fill="none" xmlns="http://www.w3.org/2000/svg">
<g clip-path="url(#clip0_737_97)">
<path d="M19.6342 13.7404H14.3396V7.72956C14.3396 7.24219 13.9354 6.83606 13.4504 6.83606C12.9654 6.83606 12.5613 7.24219 12.5613 7.72956V14.6745C12.5613 15.1618 12.9654 15.568 13.4504 15.568H19.6342C20.1192 15.568 20.5234 15.1618 20.5234 14.6745C20.5234 14.1871 20.1596 13.7404 19.6342 13.7404Z" fill="#111928"/>
<path d="M13.7334 1.43445C6.98384 1.43445 1.52759 6.9985 1.52759 13.8622C1.52759 20.7259 6.98384 26.2899 13.7334 26.2899C20.483 26.2899 25.9393 20.7259 25.9393 13.8622C25.9393 6.9985 20.483 1.43445 13.7334 1.43445ZM13.7334 24.4623C7.99426 24.4623 3.30592 19.7105 3.30592 13.8622C3.30592 8.01384 7.99426 3.26206 13.7334 3.26206C19.4726 3.26206 24.1609 8.01384 24.1609 13.8622C24.1609 19.7105 19.4726 24.4623 13.7334 24.4623Z" fill="#111928"/>
</g>
<defs>
<clipPath id="clip0_737_97">
<rect width="25.8667" height="25.9926" fill="white" transform="translate(0.800049 0.865845)"/>
</clipPath>
</defs>
</svg>
