<svg width="26" height="26" viewBox="0 0 26 26" fill="none" xmlns="http://www.w3.org/2000/svg">
<g id="Group">
<path id="Vector" d="M25.2729 13.2408C25.2729 11.1695 24.7475 9.09825 23.6966 7.18942C22.0396 4.26524 19.2508 2.15334 15.9771 1.30046C14.9262 1.05678 13.9562 0.934937 12.9862 0.934937C12.5012 0.934937 12.0971 1.34107 12.0566 1.82843V13.4845V24.572C12.0566 25.0594 12.4608 25.4655 12.9862 25.4655C13.4712 25.4655 13.9966 25.4249 14.4816 25.3843C18.1191 24.9375 21.3525 22.9068 23.3329 19.7796C24.5454 17.9114 25.1921 15.7183 25.2729 13.4439V13.2408ZM20.8271 12.591C20.7058 11.332 20.4229 10.1136 19.9783 8.97641H22.565C23.05 10.1542 23.3733 11.3726 23.4541 12.591H20.8271ZM13.9158 23.0693V20.3482H16.8662C16.0175 21.4854 15.0071 22.3789 13.9158 23.0693ZM16.9066 7.1488H13.8754V3.5342C14.8858 4.30586 15.8962 5.52426 16.9066 7.1488ZM13.8754 18.5206V14.4186H19.0487C18.9679 15.8401 18.6041 17.2616 17.9575 18.5206H13.8754ZM13.8754 12.591V8.97641H17.9575C18.5233 10.1136 18.8466 11.332 18.9679 12.591H13.8754ZM21.5141 7.1488H19.0487C18.1191 5.56488 17.1896 4.30586 16.3004 3.29052C18.4021 4.02156 20.2208 5.36181 21.5141 7.1488ZM17.0683 22.9068C17.7958 22.1758 18.4829 21.3229 19.0487 20.3888H20.6654C19.6146 21.4448 18.4021 22.3383 17.0683 22.9068ZM21.9991 18.5206H19.9783C20.5037 17.221 20.8271 15.8401 20.9079 14.4186H23.4137C23.2116 15.8807 22.7266 17.3022 21.9991 18.5206Z" fill="#111928"/>
<path id="Vector_2" d="M5.71133 13.8501C7.40883 13.8501 8.82341 12.4692 8.82341 10.7228C8.82341 8.97644 7.44924 7.59558 5.71133 7.59558C3.97341 7.59558 2.59924 8.97644 2.59924 10.7228C2.59924 12.4692 3.97341 13.8501 5.71133 13.8501ZM5.71133 9.4638C6.43883 9.4638 7.00466 10.0324 7.00466 10.7634C7.00466 11.4945 6.39841 12.0225 5.71133 12.0225C5.02424 12.0225 4.41799 11.4539 4.41799 10.7228C4.41799 9.99178 4.98383 9.4638 5.71133 9.4638Z" fill="#111928"/>
<path id="Vector_3" d="M5.71127 15.2715C3.93294 15.2715 2.23544 16.0025 1.06335 17.3022C0.740021 17.6677 0.740021 18.2363 1.10377 18.6018C1.46752 18.9267 2.03335 18.9267 2.3971 18.5612C3.24585 17.6271 4.45835 17.0991 5.71127 17.0991C6.96419 17.0991 8.17669 17.6271 9.02544 18.5612C9.1871 18.7642 9.4296 18.8455 9.71252 18.8455C9.9146 18.8455 10.1571 18.7642 10.3188 18.6018C10.6825 18.2769 10.7229 17.6677 10.3592 17.3022C9.1871 16.0431 7.4896 15.2715 5.71127 15.2715Z" fill="#111928"/>
</g>
</svg>
