<svg width="24" height="26" viewBox="0 0 24 26" fill="none" xmlns="http://www.w3.org/2000/svg">
<g id="Group">
<path id="Vector" d="M13.7946 19.3967C12.178 19.3967 10.8846 20.6964 10.8846 22.3209C10.8846 23.9454 12.178 25.2451 13.7946 25.2451C15.4113 25.2451 16.7046 23.9454 16.7046 22.3209C16.7046 20.737 15.3709 19.3967 13.7946 19.3967ZM13.7946 23.4581C13.1884 23.4581 12.7034 22.9707 12.7034 22.3615C12.7034 21.7523 13.1884 21.265 13.7946 21.265C14.4009 21.265 14.8859 21.7523 14.8859 22.3615C14.8859 22.9301 14.3605 23.4581 13.7946 23.4581Z" fill="#111928"/>
<path id="Vector_2" d="M6.11544 19.3967C4.49878 19.3967 3.20544 20.6964 3.20544 22.3209C3.20544 23.9454 4.49878 25.2451 6.11544 25.2451C7.73211 25.2451 9.02544 23.9454 9.02544 22.3209C9.02544 20.737 7.69169 19.3967 6.11544 19.3967ZM6.11544 23.4581C5.50919 23.4581 5.02419 22.9707 5.02419 22.3615C5.02419 21.7523 5.50919 21.265 6.11544 21.265C6.72169 21.265 7.20669 21.7523 7.20669 22.3615C7.20669 22.9301 6.72169 23.4581 6.11544 23.4581Z" fill="#111928"/>
<path id="Vector_3" d="M22.3226 0.714478H20.1401C19.1701 0.714478 18.3213 1.44552 18.2001 2.42024L17.5534 7.0908H1.58884C1.18467 7.0908 0.780503 7.29387 0.497586 7.61877C0.255086 7.94368 0.133837 8.39043 0.255087 8.79657C0.255087 8.83718 0.255087 8.83718 0.255087 8.87779L2.76092 16.4725C2.92259 17.0411 3.448 17.4472 4.05425 17.4472H15.2093C16.7047 17.4472 17.998 16.3101 18.2001 14.8074L19.8976 2.66393C19.8976 2.5827 19.9784 2.54209 20.0593 2.54209H22.2418C22.7268 2.54209 23.1713 2.13595 23.1713 1.60797C23.1713 1.08 22.8076 0.714478 22.3226 0.714478ZM16.4622 14.5231C16.3813 15.1323 15.8559 15.579 15.2497 15.579H4.418L2.2355 8.91841H17.2705L16.4622 14.5231Z" fill="#111928"/>
</g>
</svg>
